<svg width="20" height="20" viewBox="0 0 20 20" fill="none" xmlns="http://www.w3.org/2000/svg">
<rect width="20" height="20" rx="5" fill="#FF8465"/>
<path d="M8.56482 10.7737C8.52058 10.7737 8.48519 10.7737 8.4498 10.7737C7.38813 10.7737 6.33087 10.7737 5.2692 10.7737C5.16745 10.7737 5.07898 10.756 5.0259 10.6587C4.97281 10.5614 5.0082 10.4774 5.07013 10.3934C6.99 7.643 8.91428 4.88819 10.8341 2.13779C10.843 2.12453 10.8518 2.11126 10.8607 2.098C10.9315 2.00514 11.0332 1.97419 11.1305 2.02283C11.2234 2.06704 11.2677 2.15548 11.2455 2.27045C11.188 2.53134 11.1261 2.79223 11.0642 3.05754C10.7103 4.59192 10.352 6.13073 9.99808 7.66511C9.945 7.89063 9.89191 8.11614 9.84325 8.34166C9.83883 8.36377 9.8344 8.38145 9.82998 8.41683C9.87422 8.41683 9.91403 8.41683 9.95384 8.41683C11.0022 8.41683 12.0507 8.41683 13.0991 8.41683C13.1256 8.41683 13.1566 8.41683 13.1831 8.41683C13.2716 8.41683 13.3424 8.44778 13.3822 8.52738C13.4264 8.61139 13.4131 8.68656 13.3601 8.76173C13.1566 9.04915 12.9487 9.33215 12.7407 9.61957C10.958 12.0914 9.17528 14.5676 7.39255 17.0394C7.35274 17.0925 7.29081 17.1456 7.22887 17.1633C7.06962 17.2075 6.94134 17.0571 6.98557 16.8847C7.12713 16.3364 7.26869 15.7836 7.41467 15.2353C7.79068 13.7761 8.17111 12.3213 8.54712 10.8621C8.55597 10.8356 8.56039 10.8091 8.56482 10.7737Z" fill="white"/>
<path d="M12.9 3.99057L12.0639 7.5988H12.9L13.7006 3.99057H12.9Z" fill="#FCDB62"/>
<path d="M14.6384 6.22361L10.9359 6.17497L11.1349 5.36577L14.8287 5.44537L14.6384 6.22361Z" fill="#FCDB62"/>
</svg>
