<svg width="16" height="16" viewBox="0 0 16 16" fill="none" xmlns="http://www.w3.org/2000/svg">
<g clip-path="url(#clip0_1905_149)">
<circle cx="8" cy="8" r="8" fill="#3A3A3A"/>
<path d="M8 15L8.86603 16.5H7.13397L8 15Z" fill="white"/>
<path d="M7.13403 -0.499936L8.86608 -0.499937L8.00006 1.00006L7.13403 -0.499936Z" fill="white"/>
<line x1="3.25" y1="3.75" x2="12.75" y2="3.75" stroke="white" stroke-opacity="0.06" stroke-width="0.5" stroke-linecap="round"/>
<line x1="3.25" y1="4.75" x2="12.75" y2="4.75" stroke="white" stroke-opacity="0.06" stroke-width="0.5" stroke-linecap="round"/>
<line x1="3.25" y1="5.75" x2="12.75" y2="5.75" stroke="white" stroke-opacity="0.06" stroke-width="0.5" stroke-linecap="round"/>
<line x1="3.25" y1="6.75" x2="12.75" y2="6.75" stroke="white" stroke-opacity="0.06" stroke-width="0.5" stroke-linecap="round"/>
<line x1="3.25" y1="7.75" x2="12.75" y2="7.75" stroke="white" stroke-opacity="0.06" stroke-width="0.5" stroke-linecap="round"/>
<line x1="3.25" y1="8.75" x2="12.75" y2="8.75" stroke="white" stroke-opacity="0.06" stroke-width="0.5" stroke-linecap="round"/>
<line x1="3.25" y1="9.75" x2="12.75" y2="9.75" stroke="white" stroke-opacity="0.06" stroke-width="0.5" stroke-linecap="round"/>
<line x1="3.25" y1="10.75" x2="12.75" y2="10.75" stroke="white" stroke-opacity="0.06" stroke-width="0.5" stroke-linecap="round"/>
<g clip-path="url(#clip1_1905_149)">
<path d="M7.1242 7.70404C7.14481 7.8792 6.96965 8.00284 6.8151 7.91011C6.24841 7.5804 5.97022 6.9725 5.59929 6.44702C5.00169 7.39494 4.54834 8.31195 4.54834 9.29078C4.54834 11.2793 5.95991 12.794 7.94848 12.794C9.93705 12.794 11.4517 11.2793 11.4517 9.29078C11.4517 6.79734 8.84488 6.36459 8.87579 3.21173C7.82484 3.95358 6.83571 5.61244 7.1242 7.70404Z" fill="url(#paint0_linear_1905_149)"/>
<path d="M7.94849 13C5.85689 13 4.34229 11.4442 4.34229 9.29075C4.34229 8.20888 4.86776 7.23005 5.42415 6.33365C5.46536 6.27183 5.52718 6.24092 5.589 6.24092C5.66113 6.24092 5.72295 6.27183 5.76416 6.32335C5.85689 6.44699 5.93932 6.58093 6.02175 6.71488C6.27933 7.11671 6.52662 7.49794 6.91815 7.72462C6.61935 5.5918 7.62909 3.82991 8.75216 3.03654C8.81398 2.99533 8.89641 2.98502 8.96854 3.02624C9.04066 3.05715 9.08187 3.12927 9.08187 3.2117C9.06127 4.80874 9.7619 5.68453 10.4316 6.51911C11.0395 7.27127 11.6577 8.04403 11.6577 9.29075C11.6577 11.403 10.0607 13 7.94849 13ZM5.60961 6.82822C5.14595 7.59067 4.75442 8.41495 4.75442 9.29075C4.75442 11.1969 6.09387 12.5879 7.94849 12.5879C9.82372 12.5879 11.2456 11.166 11.2456 9.29075C11.2456 8.18828 10.7201 7.53916 10.1122 6.7767C9.48371 5.99364 8.78307 5.11784 8.68004 3.63414C7.79394 4.43781 7.083 5.91121 7.33029 7.6731C7.35089 7.83796 7.27877 7.99251 7.14482 8.07494C7.01088 8.15737 6.84602 8.15737 6.71208 8.07494C6.23812 7.79674 5.95993 7.3537 5.68173 6.93125C5.65082 6.90034 5.63022 6.86943 5.60961 6.82822Z" fill="#3A3A3A"/>
<path d="M10.1637 10.8363C10.5243 10.2799 10.7304 9.61015 10.7304 8.8786Z" fill="url(#paint1_linear_1905_149)"/>
<path d="M10.1637 11.0423C10.1225 11.0423 10.0813 11.032 10.0504 11.0114C9.95767 10.9496 9.92676 10.826 9.98858 10.7229C10.3389 10.1872 10.5244 9.54834 10.5244 8.87862C10.5244 8.76528 10.6171 8.67255 10.7304 8.67255C10.8438 8.67255 10.9365 8.76528 10.9365 8.87862C10.9365 9.63077 10.7304 10.3417 10.3389 10.9496C10.2977 11.0114 10.2359 11.0423 10.1637 11.0423Z" fill="#3A3A3A"/>
<path d="M9.53522 11.5575C9.60734 11.4957 9.68976 11.4236 9.75158 11.3514Z" fill="url(#paint2_linear_1905_149)"/>
<path d="M9.53518 11.7636C9.47336 11.7636 9.42184 11.743 9.38063 11.6915C9.3085 11.6091 9.31881 11.4751 9.40124 11.403C9.46306 11.3412 9.54549 11.2793 9.597 11.2175C9.66913 11.1351 9.80307 11.1248 9.8855 11.1969C9.96793 11.269 9.97823 11.403 9.90611 11.4854C9.83398 11.5678 9.74125 11.6503 9.66913 11.7121C9.62791 11.743 9.5867 11.7636 9.53518 11.7636Z" fill="#3A3A3A"/>
</g>
</g>
<defs>
<linearGradient id="paint0_linear_1905_149" x1="8" y1="3.21173" x2="8" y2="12.794" gradientUnits="userSpaceOnUse">
<stop stop-color="#F56545"/>
<stop offset="1" stop-color="#99201C"/>
</linearGradient>
<linearGradient id="paint1_linear_1905_149" x1="10.447" y1="8.8786" x2="10.447" y2="10.8363" gradientUnits="userSpaceOnUse">
<stop stop-color="#F56545"/>
<stop offset="1" stop-color="#99201C"/>
</linearGradient>
<linearGradient id="paint2_linear_1905_149" x1="9.6434" y1="11.3514" x2="9.6434" y2="11.5575" gradientUnits="userSpaceOnUse">
<stop stop-color="#F56545"/>
<stop offset="1" stop-color="#99201C"/>
</linearGradient>
<clipPath id="clip0_1905_149">
<rect width="16" height="16" fill="white"/>
</clipPath>
<clipPath id="clip1_1905_149">
<rect width="10" height="10" fill="white" transform="translate(3 3)"/>
</clipPath>
</defs>
</svg>
